<?xml version="1.0" encoding="UTF-8" standalone="no"?>
<!DOCTYPE svg PUBLIC "-//W3C//DTD SVG 1.1//EN"
 "http://www.w3.org/Graphics/SVG/1.1/DTD/svg11.dtd">
<!-- Generated by graphviz version 9.0.0 (20230911.1827)
 -->
<!-- Title: G Pages: 1 -->
<svg width="84pt" height="213pt"
 viewBox="0.00 0.00 83.76 212.50" xmlns="http://www.w3.org/2000/svg" xmlns:xlink="http://www.w3.org/1999/xlink">
<g id="graph0" class="graph" transform="scale(1 1) rotate(0) translate(4 208.5)">
<title>G</title>
<polygon fill="white" stroke="none" points="-4,4 -4,-208.5 79.76,-208.5 79.76,4 -4,4"/>
<text text-anchor="middle" x="37.88" y="-7.2" font-family="Times,serif" font-size="14.00">fun_2</text>
<!-- 1 -->
<g id="node1" class="node">
<title>1</title>
<ellipse fill="none" stroke="black" cx="37.88" cy="-114.5" rx="27" ry="18"/>
<text text-anchor="middle" x="37.88" y="-109.45" font-family="Times,serif" font-size="14.00">1</text>
</g>
<!-- end -->
<g id="node2" class="node">
<title>end</title>
<polygon fill="none" stroke="black" points="55.88,-60.5 19.88,-60.5 19.88,-24.5 55.88,-24.5 55.88,-60.5"/>
<polyline fill="none" stroke="black" points="31.88,-60.5 19.88,-48.5"/>
<polyline fill="none" stroke="black" points="19.88,-36.5 31.88,-24.5"/>
<polyline fill="none" stroke="black" points="43.88,-24.5 55.88,-36.5"/>
<polyline fill="none" stroke="black" points="55.88,-48.5 43.88,-60.5"/>
<text text-anchor="middle" x="37.88" y="-37.45" font-family="Times,serif" font-size="14.00">end</text>
</g>
<!-- 1&#45;&gt;end -->
<g id="edge1" class="edge">
<title>1&#45;&gt;end</title>
<path fill="none" stroke="black" d="M37.88,-96.2C37.88,-88.91 37.88,-80.23 37.88,-72.04"/>
<polygon fill="black" stroke="black" points="41.38,-72.12 37.88,-62.12 34.38,-72.12 41.38,-72.12"/>
</g>
<!-- start -->
<g id="node3" class="node">
<title>start</title>
<polygon fill="none" stroke="black" points="37.88,-204.5 0,-186.5 37.88,-168.5 75.76,-186.5 37.88,-204.5"/>
<polyline fill="none" stroke="black" points="10.84,-191.65 10.84,-181.35"/>
<polyline fill="none" stroke="black" points="27.04,-173.65 48.72,-173.65"/>
<polyline fill="none" stroke="black" points="64.92,-181.35 64.92,-191.65"/>
<polyline fill="none" stroke="black" points="48.72,-199.35 27.04,-199.35"/>
<text text-anchor="middle" x="37.88" y="-181.45" font-family="Times,serif" font-size="14.00">start</text>
</g>
<!-- start&#45;&gt;1 -->
<g id="edge2" class="edge">
<title>start&#45;&gt;1</title>
<path fill="none" stroke="black" d="M37.88,-168.2C37.88,-160.91 37.88,-152.23 37.88,-144.04"/>
<polygon fill="black" stroke="black" points="41.38,-144.12 37.88,-134.12 34.38,-144.12 41.38,-144.12"/>
</g>
</g>
</svg>
