<?xml version="1.0" encoding="UTF-8" standalone="no"?>
<!DOCTYPE svg PUBLIC "-//W3C//DTD SVG 1.1//EN"
 "http://www.w3.org/Graphics/SVG/1.1/DTD/svg11.dtd">
<!-- Generated by graphviz version 9.0.0 (20230911.1827)
 -->
<!-- Title: G Pages: 1 -->
<svg width="249pt" height="465pt"
 viewBox="0.00 0.00 248.52 464.50" xmlns="http://www.w3.org/2000/svg" xmlns:xlink="http://www.w3.org/1999/xlink">
<g id="graph0" class="graph" transform="scale(1 1) rotate(0) translate(4 460.5)">
<title>G</title>
<polygon fill="white" stroke="none" points="-4,4 -4,-460.5 244.52,-460.5 244.52,4 -4,4"/>
<text text-anchor="middle" x="120.26" y="-7.2" font-family="Times,serif" font-size="14.00">fun_1</text>
<!-- 1 -->
<g id="node1" class="node">
<title>1</title>
<ellipse fill="none" stroke="black" cx="178.39" cy="-365.5" rx="27" ry="18"/>
<text text-anchor="middle" x="178.39" y="-360.45" font-family="Times,serif" font-size="14.00">1</text>
</g>
<!-- 2 -->
<g id="node2" class="node">
<title>2</title>
<ellipse fill="none" stroke="black" cx="138.39" cy="-277" rx="27" ry="18"/>
<text text-anchor="middle" x="138.39" y="-271.95" font-family="Times,serif" font-size="14.00">2</text>
</g>
<!-- 1&#45;&gt;2 -->
<g id="edge1" class="edge">
<title>1&#45;&gt;2</title>
<path fill="none" stroke="black" d="M154.35,-356.99C141.38,-351.57 126.51,-342.82 118.89,-329.5 114.17,-321.24 116.06,-311.62 120.15,-302.94"/>
<polygon fill="black" stroke="black" points="123.17,-304.7 125.15,-294.29 117.11,-301.19 123.17,-304.7"/>
<text text-anchor="middle" x="172.64" y="-316.2" font-family="Times,serif" font-size="14.00">IF assigment(a, 10)</text>
</g>
<!-- 3 -->
<g id="node5" class="node">
<title>3</title>
<ellipse fill="none" stroke="black" cx="206.39" cy="-115.5" rx="27" ry="18"/>
<text text-anchor="middle" x="206.39" y="-110.45" font-family="Times,serif" font-size="14.00">3</text>
</g>
<!-- 1&#45;&gt;3 -->
<g id="edge7" class="edge">
<title>1&#45;&gt;3</title>
<path fill="none" stroke="black" d="M199.94,-354.31C209.6,-348.5 220,-340.23 225.39,-329.5 255.91,-268.72 233.02,-185.85 217.53,-143.63"/>
<polygon fill="black" stroke="black" points="220.88,-142.6 214.04,-134.51 214.34,-145.1 220.88,-142.6"/>
</g>
<!-- 4 -->
<g id="node3" class="node">
<title>4</title>
<ellipse fill="none" stroke="black" cx="56.39" cy="-188.5" rx="27" ry="18"/>
<text text-anchor="middle" x="56.39" y="-183.45" font-family="Times,serif" font-size="14.00">4</text>
</g>
<!-- 2&#45;&gt;4 -->
<g id="edge2" class="edge">
<title>2&#45;&gt;4</title>
<path fill="none" stroke="black" d="M111.85,-272.93C76.47,-268.23 16.76,-257.97 3.64,-241 -6.77,-227.54 7.85,-214.18 24.31,-204.44"/>
<polygon fill="black" stroke="black" points="25.6,-207.72 32.72,-199.87 22.26,-201.57 25.6,-207.72"/>
<text text-anchor="middle" x="66.26" y="-227.7" font-family="Times,serif" font-size="14.00">while GREATER(a, 3)</text>
</g>
<!-- 5 -->
<g id="node4" class="node">
<title>5</title>
<ellipse fill="none" stroke="black" cx="174.39" cy="-188.5" rx="27" ry="18"/>
<text text-anchor="middle" x="174.39" y="-183.45" font-family="Times,serif" font-size="14.00">5</text>
</g>
<!-- 2&#45;&gt;5 -->
<g id="edge4" class="edge">
<title>2&#45;&gt;5</title>
<path fill="none" stroke="black" d="M146.86,-259.42C149.7,-253.65 152.79,-247.09 155.39,-241 158.65,-233.34 161.9,-224.91 164.76,-217.13"/>
<polygon fill="black" stroke="black" points="168.04,-218.38 168.13,-207.79 161.45,-216.01 168.04,-218.38"/>
</g>
<!-- 4&#45;&gt;2 -->
<g id="edge3" class="edge">
<title>4&#45;&gt;2</title>
<path fill="none" stroke="black" d="M81.34,-195.76C96.87,-200.93 115.99,-209.86 127.39,-224.5 132.45,-230.99 135.31,-239.29 136.89,-247.32"/>
<polygon fill="black" stroke="black" points="133.41,-247.7 138.2,-257.14 140.35,-246.77 133.41,-247.7"/>
</g>
<!-- 5&#45;&gt;3 -->
<g id="edge5" class="edge">
<title>5&#45;&gt;3</title>
<path fill="none" stroke="black" d="M181.81,-171.03C185.53,-162.79 190.12,-152.6 194.32,-143.27"/>
<polygon fill="black" stroke="black" points="197.47,-144.81 198.39,-134.26 191.09,-141.94 197.47,-144.81"/>
</g>
<!-- end -->
<g id="node6" class="node">
<title>end</title>
<polygon fill="none" stroke="black" points="224.39,-60.5 188.39,-60.5 188.39,-24.5 224.39,-24.5 224.39,-60.5"/>
<polyline fill="none" stroke="black" points="200.39,-60.5 188.39,-48.5"/>
<polyline fill="none" stroke="black" points="188.39,-36.5 200.39,-24.5"/>
<polyline fill="none" stroke="black" points="212.39,-24.5 224.39,-36.5"/>
<polyline fill="none" stroke="black" points="224.39,-48.5 212.39,-60.5"/>
<text text-anchor="middle" x="206.39" y="-37.45" font-family="Times,serif" font-size="14.00">end</text>
</g>
<!-- 3&#45;&gt;end -->
<g id="edge6" class="edge">
<title>3&#45;&gt;end</title>
<path fill="none" stroke="black" d="M206.39,-97.31C206.39,-89.73 206.39,-80.6 206.39,-72.04"/>
<polygon fill="black" stroke="black" points="209.89,-72.04 206.39,-62.04 202.89,-72.04 209.89,-72.04"/>
</g>
<!-- start -->
<g id="node7" class="node">
<title>start</title>
<polygon fill="none" stroke="black" points="178.39,-456.5 140.51,-438.5 178.39,-420.5 216.27,-438.5 178.39,-456.5"/>
<polyline fill="none" stroke="black" points="151.35,-443.65 151.35,-433.35"/>
<polyline fill="none" stroke="black" points="167.55,-425.65 189.23,-425.65"/>
<polyline fill="none" stroke="black" points="205.43,-433.35 205.43,-443.65"/>
<polyline fill="none" stroke="black" points="189.23,-451.35 167.55,-451.35"/>
<text text-anchor="middle" x="178.39" y="-433.45" font-family="Times,serif" font-size="14.00">start</text>
</g>
<!-- start&#45;&gt;1 -->
<g id="edge8" class="edge">
<title>start&#45;&gt;1</title>
<path fill="none" stroke="black" d="M178.39,-419.95C178.39,-412.47 178.39,-403.55 178.39,-395.15"/>
<polygon fill="black" stroke="black" points="181.89,-395.36 178.39,-385.36 174.89,-395.36 181.89,-395.36"/>
</g>
</g>
</svg>
