<?xml version="1.0" encoding="UTF-8" standalone="no"?>
<!DOCTYPE svg PUBLIC "-//W3C//DTD SVG 1.1//EN"
 "http://www.w3.org/Graphics/SVG/1.1/DTD/svg11.dtd">
<!-- Generated by graphviz version 9.0.0 (20230911.1827)
 -->
<!-- Title: G Pages: 1 -->
<svg width="198pt" height="626pt"
 viewBox="0.00 0.00 198.47 626.00" xmlns="http://www.w3.org/2000/svg" xmlns:xlink="http://www.w3.org/1999/xlink">
<g id="graph0" class="graph" transform="scale(1 1) rotate(0) translate(4 622)">
<title>G</title>
<polygon fill="white" stroke="none" points="-4,4 -4,-622 194.47,-622 194.47,4 -4,4"/>
<text text-anchor="middle" x="95.24" y="-7.2" font-family="Times,serif" font-size="14.00">fun_4</text>
<!-- 1 -->
<g id="node1" class="node">
<title>1</title>
<ellipse fill="none" stroke="black" cx="90.47" cy="-527" rx="27" ry="18"/>
<text text-anchor="middle" x="90.47" y="-521.95" font-family="Times,serif" font-size="14.00">1</text>
</g>
<!-- 2 -->
<g id="node2" class="node">
<title>2</title>
<ellipse fill="none" stroke="black" cx="63.47" cy="-438.5" rx="27" ry="18"/>
<text text-anchor="middle" x="63.47" y="-433.45" font-family="Times,serif" font-size="14.00">2</text>
</g>
<!-- 1&#45;&gt;2 -->
<g id="edge1" class="edge">
<title>1&#45;&gt;2</title>
<path fill="none" stroke="black" d="M67.05,-517.71C55.09,-512.14 41.63,-503.5 34.72,-491 29.37,-481.32 33.65,-470.64 40.39,-461.53"/>
<polygon fill="black" stroke="black" points="42.84,-464.05 46.69,-454.19 37.53,-459.49 42.84,-464.05"/>
<text text-anchor="middle" x="85.35" y="-477.7" font-family="Times,serif" font-size="14.00">IF assigment(a, 4)</text>
</g>
<!-- 3 -->
<g id="node3" class="node">
<title>3</title>
<ellipse fill="none" stroke="black" cx="120.47" cy="-365.5" rx="27" ry="18"/>
<text text-anchor="middle" x="120.47" y="-360.45" font-family="Times,serif" font-size="14.00">3</text>
</g>
<!-- 1&#45;&gt;3 -->
<g id="edge11" class="edge">
<title>1&#45;&gt;3</title>
<path fill="none" stroke="black" d="M111.14,-515.2C120.06,-509.34 129.55,-501.2 134.47,-491 149.37,-460.11 140.61,-420.05 131.68,-393.82"/>
<polygon fill="black" stroke="black" points="135.02,-392.78 128.3,-384.59 128.45,-395.18 135.02,-392.78"/>
</g>
<!-- 2&#45;&gt;3 -->
<g id="edge2" class="edge">
<title>2&#45;&gt;3</title>
<path fill="none" stroke="black" d="M75.84,-422.09C83.23,-412.88 92.79,-400.98 101.16,-390.55"/>
<polygon fill="black" stroke="black" points="103.65,-393.05 107.18,-383.06 98.19,-388.66 103.65,-393.05"/>
</g>
<!-- 4 -->
<g id="node4" class="node">
<title>4</title>
<ellipse fill="none" stroke="black" cx="84.47" cy="-277" rx="27" ry="18"/>
<text text-anchor="middle" x="84.47" y="-271.95" font-family="Times,serif" font-size="14.00">4</text>
</g>
<!-- 3&#45;&gt;4 -->
<g id="edge3" class="edge">
<title>3&#45;&gt;4</title>
<path fill="none" stroke="black" d="M98.5,-354.61C88.47,-348.84 77.6,-340.5 71.97,-329.5 68.05,-321.84 68.67,-312.91 71.02,-304.65"/>
<polygon fill="black" stroke="black" points="74.25,-306 74.51,-295.41 67.7,-303.53 74.25,-306"/>
<text text-anchor="middle" x="110.72" y="-316.2" font-family="Times,serif" font-size="14.00">IF LESS(a, 4)</text>
</g>
<!-- 6 -->
<g id="node9" class="node">
<title>6</title>
<ellipse fill="none" stroke="black" cx="163.47" cy="-277" rx="27" ry="18"/>
<text text-anchor="middle" x="163.47" y="-271.95" font-family="Times,serif" font-size="14.00">6</text>
</g>
<!-- 3&#45;&gt;6 -->
<g id="edge9" class="edge">
<title>3&#45;&gt;6</title>
<path fill="none" stroke="black" d="M134.42,-349.73C139.42,-343.8 144.74,-336.68 148.47,-329.5 152.18,-322.37 155.09,-314.19 157.32,-306.48"/>
<polygon fill="black" stroke="black" points="160.71,-307.36 159.82,-296.8 153.93,-305.61 160.71,-307.36"/>
<text text-anchor="middle" x="164.97" y="-316.2" font-family="Times,serif" font-size="14.00">else</text>
</g>
<!-- 5 -->
<g id="node5" class="node">
<title>5</title>
<ellipse fill="none" stroke="black" cx="119.47" cy="-204" rx="27" ry="18"/>
<text text-anchor="middle" x="119.47" y="-198.95" font-family="Times,serif" font-size="14.00">5</text>
</g>
<!-- 4&#45;&gt;5 -->
<g id="edge4" class="edge">
<title>4&#45;&gt;5</title>
<path fill="none" stroke="black" d="M92.59,-259.53C96.7,-251.2 101.79,-240.88 106.43,-231.47"/>
<polygon fill="black" stroke="black" points="109.45,-233.25 110.73,-222.74 103.17,-230.16 109.45,-233.25"/>
</g>
<!-- 7 -->
<g id="node6" class="node">
<title>7</title>
<ellipse fill="none" stroke="black" cx="37.47" cy="-115.5" rx="27" ry="18"/>
<text text-anchor="middle" x="37.47" y="-110.45" font-family="Times,serif" font-size="14.00">7</text>
</g>
<!-- 5&#45;&gt;7 -->
<g id="edge5" class="edge">
<title>5&#45;&gt;7</title>
<path fill="none" stroke="black" d="M92,-203.36C64.59,-202.06 23.73,-195.27 3.47,-168 -3.89,-158.09 2.27,-146.66 11.26,-137.1"/>
<polygon fill="black" stroke="black" points="13.62,-139.68 18.52,-130.29 8.84,-134.57 13.62,-139.68"/>
<text text-anchor="middle" x="54.47" y="-154.7" font-family="Times,serif" font-size="14.00">while LESS(b, 10)</text>
</g>
<!-- 8 -->
<g id="node7" class="node">
<title>8</title>
<ellipse fill="none" stroke="black" cx="144.47" cy="-115.5" rx="27" ry="18"/>
<text text-anchor="middle" x="144.47" y="-110.45" font-family="Times,serif" font-size="14.00">8</text>
</g>
<!-- 5&#45;&gt;8 -->
<g id="edge7" class="edge">
<title>5&#45;&gt;8</title>
<path fill="none" stroke="black" d="M124.98,-185.95C126.78,-180.26 128.75,-173.87 130.47,-168 132.69,-160.44 134.97,-152.23 137.04,-144.62"/>
<polygon fill="black" stroke="black" points="140.36,-145.74 139.58,-135.18 133.6,-143.92 140.36,-145.74"/>
</g>
<!-- 7&#45;&gt;5 -->
<g id="edge6" class="edge">
<title>7&#45;&gt;5</title>
<path fill="none" stroke="black" d="M62.12,-123.59C76.71,-129 94.44,-137.88 105.47,-151.5 110.78,-158.06 114.08,-166.47 116.14,-174.58"/>
<polygon fill="black" stroke="black" points="112.65,-175 118,-184.15 119.52,-173.66 112.65,-175"/>
</g>
<!-- end -->
<g id="node8" class="node">
<title>end</title>
<polygon fill="none" stroke="black" points="162.47,-60.5 126.47,-60.5 126.47,-24.5 162.47,-24.5 162.47,-60.5"/>
<polyline fill="none" stroke="black" points="138.47,-60.5 126.47,-48.5"/>
<polyline fill="none" stroke="black" points="126.47,-36.5 138.47,-24.5"/>
<polyline fill="none" stroke="black" points="150.47,-24.5 162.47,-36.5"/>
<polyline fill="none" stroke="black" points="162.47,-48.5 150.47,-60.5"/>
<text text-anchor="middle" x="144.47" y="-37.45" font-family="Times,serif" font-size="14.00">end</text>
</g>
<!-- 8&#45;&gt;end -->
<g id="edge8" class="edge">
<title>8&#45;&gt;end</title>
<path fill="none" stroke="black" d="M144.47,-97.31C144.47,-89.73 144.47,-80.6 144.47,-72.04"/>
<polygon fill="black" stroke="black" points="147.97,-72.04 144.47,-62.04 140.97,-72.04 147.97,-72.04"/>
</g>
<!-- 6&#45;&gt;5 -->
<g id="edge10" class="edge">
<title>6&#45;&gt;5</title>
<path fill="none" stroke="black" d="M153.49,-259.89C148.14,-251.27 141.43,-240.44 135.39,-230.69"/>
<polygon fill="black" stroke="black" points="138.46,-228.99 130.21,-222.33 132.51,-232.68 138.46,-228.99"/>
</g>
<!-- start -->
<g id="node10" class="node">
<title>start</title>
<polygon fill="none" stroke="black" points="90.47,-618 52.59,-600 90.47,-582 128.35,-600 90.47,-618"/>
<polyline fill="none" stroke="black" points="63.43,-605.15 63.43,-594.85"/>
<polyline fill="none" stroke="black" points="79.63,-587.15 101.31,-587.15"/>
<polyline fill="none" stroke="black" points="117.51,-594.85 117.51,-605.15"/>
<polyline fill="none" stroke="black" points="101.31,-612.85 79.63,-612.85"/>
<text text-anchor="middle" x="90.47" y="-594.95" font-family="Times,serif" font-size="14.00">start</text>
</g>
<!-- start&#45;&gt;1 -->
<g id="edge12" class="edge">
<title>start&#45;&gt;1</title>
<path fill="none" stroke="black" d="M90.47,-581.45C90.47,-573.97 90.47,-565.05 90.47,-556.65"/>
<polygon fill="black" stroke="black" points="93.97,-556.86 90.47,-546.86 86.97,-556.86 93.97,-556.86"/>
</g>
</g>
</svg>
