<?xml version="1.0" encoding="UTF-8" standalone="no"?>
<!DOCTYPE svg PUBLIC "-//W3C//DTD SVG 1.1//EN"
 "http://www.w3.org/Graphics/SVG/1.1/DTD/svg11.dtd">
<!-- Generated by graphviz version 9.0.0 (20230911.1827)
 -->
<!-- Title: G Pages: 1 -->
<svg width="151pt" height="376pt"
 viewBox="0.00 0.00 150.89 376.00" xmlns="http://www.w3.org/2000/svg" xmlns:xlink="http://www.w3.org/1999/xlink">
<g id="graph0" class="graph" transform="scale(1 1) rotate(0) translate(4 372)">
<title>G</title>
<polygon fill="white" stroke="none" points="-4,4 -4,-372 146.89,-372 146.89,4 -4,4"/>
<text text-anchor="middle" x="71.44" y="-7.2" font-family="Times,serif" font-size="14.00">fun_3</text>
<!-- 1 -->
<g id="node1" class="node">
<title>1</title>
<ellipse fill="none" stroke="black" cx="65.89" cy="-277" rx="27" ry="18"/>
<text text-anchor="middle" x="65.89" y="-271.95" font-family="Times,serif" font-size="14.00">1</text>
</g>
<!-- 2 -->
<g id="node2" class="node">
<title>2</title>
<ellipse fill="none" stroke="black" cx="29.89" cy="-188.5" rx="27" ry="18"/>
<text text-anchor="middle" x="29.89" y="-183.45" font-family="Times,serif" font-size="14.00">2</text>
</g>
<!-- 1&#45;&gt;2 -->
<g id="edge1" class="edge">
<title>1&#45;&gt;2</title>
<path fill="none" stroke="black" d="M41.22,-269.07C27.4,-263.79 11.35,-254.98 3.14,-241 -2.24,-231.84 1.34,-221.5 7.42,-212.49"/>
<polygon fill="black" stroke="black" points="9.98,-214.9 13.45,-204.89 4.49,-210.55 9.98,-214.9"/>
<text text-anchor="middle" x="56.76" y="-227.7" font-family="Times,serif" font-size="14.00">IF GREATER(a, 3)</text>
</g>
<!-- 4 -->
<g id="node5" class="node">
<title>4</title>
<ellipse fill="none" stroke="black" cx="115.89" cy="-188.5" rx="27" ry="18"/>
<text text-anchor="middle" x="115.89" y="-183.45" font-family="Times,serif" font-size="14.00">4</text>
</g>
<!-- 1&#45;&gt;4 -->
<g id="edge4" class="edge">
<title>1&#45;&gt;4</title>
<path fill="none" stroke="black" d="M85.94,-264.47C94.4,-258.56 103.52,-250.57 108.89,-241 112.76,-234.1 114.8,-225.89 115.81,-218.07"/>
<polygon fill="black" stroke="black" points="119.29,-218.47 116.54,-208.24 112.31,-217.95 119.29,-218.47"/>
<text text-anchor="middle" x="125.39" y="-227.7" font-family="Times,serif" font-size="14.00">else</text>
</g>
<!-- 3 -->
<g id="node3" class="node">
<title>3</title>
<ellipse fill="none" stroke="black" cx="64.89" cy="-115.5" rx="27" ry="18"/>
<text text-anchor="middle" x="64.89" y="-110.45" font-family="Times,serif" font-size="14.00">3</text>
</g>
<!-- 2&#45;&gt;3 -->
<g id="edge2" class="edge">
<title>2&#45;&gt;3</title>
<path fill="none" stroke="black" d="M38,-171.03C42.11,-162.7 47.2,-152.38 51.84,-142.97"/>
<polygon fill="black" stroke="black" points="54.86,-144.75 56.14,-134.24 48.58,-141.66 54.86,-144.75"/>
</g>
<!-- end -->
<g id="node4" class="node">
<title>end</title>
<polygon fill="none" stroke="black" points="82.89,-60.5 46.89,-60.5 46.89,-24.5 82.89,-24.5 82.89,-60.5"/>
<polyline fill="none" stroke="black" points="58.89,-60.5 46.89,-48.5"/>
<polyline fill="none" stroke="black" points="46.89,-36.5 58.89,-24.5"/>
<polyline fill="none" stroke="black" points="70.89,-24.5 82.89,-36.5"/>
<polyline fill="none" stroke="black" points="82.89,-48.5 70.89,-60.5"/>
<text text-anchor="middle" x="64.89" y="-37.45" font-family="Times,serif" font-size="14.00">end</text>
</g>
<!-- 3&#45;&gt;end -->
<g id="edge3" class="edge">
<title>3&#45;&gt;end</title>
<path fill="none" stroke="black" d="M64.89,-97.31C64.89,-89.73 64.89,-80.6 64.89,-72.04"/>
<polygon fill="black" stroke="black" points="68.39,-72.04 64.89,-62.04 61.39,-72.04 68.39,-72.04"/>
</g>
<!-- 4&#45;&gt;3 -->
<g id="edge5" class="edge">
<title>4&#45;&gt;3</title>
<path fill="none" stroke="black" d="M104.57,-171.74C98.16,-162.83 90.01,-151.47 82.76,-141.38"/>
<polygon fill="black" stroke="black" points="85.73,-139.52 77.06,-133.44 80.05,-143.61 85.73,-139.52"/>
</g>
<!-- start -->
<g id="node6" class="node">
<title>start</title>
<polygon fill="none" stroke="black" points="65.89,-368 28.01,-350 65.89,-332 103.77,-350 65.89,-368"/>
<polyline fill="none" stroke="black" points="38.85,-355.15 38.85,-344.85"/>
<polyline fill="none" stroke="black" points="55.05,-337.15 76.73,-337.15"/>
<polyline fill="none" stroke="black" points="92.93,-344.85 92.93,-355.15"/>
<polyline fill="none" stroke="black" points="76.73,-362.85 55.05,-362.85"/>
<text text-anchor="middle" x="65.89" y="-344.95" font-family="Times,serif" font-size="14.00">start</text>
</g>
<!-- start&#45;&gt;1 -->
<g id="edge6" class="edge">
<title>start&#45;&gt;1</title>
<path fill="none" stroke="black" d="M65.89,-331.45C65.89,-323.97 65.89,-315.05 65.89,-306.65"/>
<polygon fill="black" stroke="black" points="69.39,-306.86 65.89,-296.86 62.39,-306.86 69.39,-306.86"/>
</g>
</g>
</svg>
